<svg width="158" height="47" viewBox="0 0 158 47" fill="none" xmlns="http://www.w3.org/2000/svg">
<path d="M60.8 24.7204C60.8 22.1604 61.696 20.0484 63.488 18.3844C65.28 16.7204 67.328 15.8884 69.632 15.8884C71.936 15.8884 73.9733 16.7204 75.744 18.3844C77.5147 20.027 78.4 22.1284 78.4 24.6884C78.4 26.459 77.9413 28.0377 77.024 29.4244C76.1067 30.7897 74.9867 31.803 73.664 32.4644C72.3627 33.1044 71.008 33.4244 69.6 33.4244C68.192 33.4244 66.8267 33.083 65.504 32.4004C64.1813 31.6964 63.0613 30.6724 62.144 29.3284C61.248 27.963 60.8 26.427 60.8 24.7204ZM67.488 27.0244C68.1707 27.5364 68.864 27.7924 69.568 27.7924C70.272 27.7924 70.976 27.5257 71.68 26.9924C72.384 26.459 72.736 25.6697 72.736 24.6244C72.736 23.579 72.4053 22.8004 71.744 22.2884C71.0827 21.7764 70.368 21.5204 69.6 21.5204C68.832 21.5204 68.1173 21.787 67.456 22.3204C66.7947 22.8537 66.464 23.643 66.464 24.6884C66.464 25.7124 66.8053 26.491 67.488 27.0244ZM85.7475 24.7204C85.7475 25.6164 86.0462 26.3204 86.6435 26.8324C87.2408 27.323 87.8702 27.5684 88.5315 27.5684C89.2142 27.5684 89.8435 27.3764 90.4195 26.9924C91.0168 26.587 91.4968 26.3844 91.8595 26.3844C92.4995 26.3844 93.2782 26.9497 94.1955 28.0804C94.6862 28.699 94.9315 29.2537 94.9315 29.7444C94.9315 30.555 94.3448 31.3124 93.1715 32.0164C91.9555 32.8697 90.4622 33.2964 88.6915 33.2964C86.7075 33.2964 84.7982 32.5817 82.9635 31.1524C82.0888 30.4697 81.3742 29.563 80.8195 28.4324C80.2648 27.2804 79.9875 26.0217 79.9875 24.6564C79.9875 23.2697 80.2648 22.0217 80.8195 20.9124C81.3742 19.7817 82.0888 18.875 82.9635 18.1924C84.7342 16.7844 86.6222 16.0804 88.6275 16.0804C89.4382 16.0804 90.2275 16.1977 90.9955 16.4324C91.7635 16.6457 92.3288 16.859 92.6915 17.0724L93.2035 17.3924C93.5875 17.6484 93.8862 17.851 94.0995 18.0004C94.6542 18.427 94.9315 18.9177 94.9315 19.4724C94.9315 20.0057 94.7075 20.6137 94.2595 21.2964C93.4915 22.4697 92.7555 23.0564 92.0515 23.0564C91.6462 23.0564 91.0702 22.8217 90.3235 22.3524C89.9395 21.9897 89.3848 21.8084 88.6595 21.8084C87.9555 21.8084 87.2942 22.0644 86.6755 22.5764C86.0568 23.0884 85.7475 23.803 85.7475 24.7204ZM107.943 18.0644C108.071 16.8697 108.913 16.2724 110.471 16.2724C111.303 16.2724 111.921 16.3364 112.327 16.4644C112.732 16.5924 113.009 16.8164 113.159 17.1364C113.329 17.4564 113.425 17.7444 113.447 18.0004C113.489 18.235 113.511 18.5977 113.511 19.0884V30.2884C113.511 30.779 113.489 31.1524 113.447 31.4084C113.425 31.643 113.34 31.9204 113.191 32.2404C112.892 32.795 112.156 33.0724 110.983 33.0724C109.831 33.0724 109.052 32.9337 108.647 32.6564C108.263 32.3577 108.039 31.931 107.975 31.3764C107.185 32.507 105.863 33.0724 104.007 33.0724C102.172 33.0724 100.465 32.2297 98.8868 30.5444C97.3081 28.859 96.5188 26.907 96.5188 24.6884C96.5188 22.4484 97.3081 20.4964 98.8868 18.8324C100.487 17.147 102.236 16.3044 104.135 16.3044C104.86 16.3044 105.521 16.4324 106.119 16.6884C106.716 16.9444 107.132 17.1897 107.367 17.4244C107.601 17.6377 107.793 17.851 107.943 18.0644ZM102.119 24.7204C102.119 25.4244 102.396 26.0644 102.951 26.6404C103.505 27.195 104.177 27.4724 104.967 27.4724C105.756 27.4724 106.407 27.1844 106.919 26.6084C107.452 26.0324 107.719 25.403 107.719 24.7204C107.719 24.0164 107.463 23.3657 106.951 22.7684C106.46 22.171 105.788 21.8724 104.935 21.8724C104.103 21.8724 103.42 22.171 102.887 22.7684C102.375 23.3657 102.119 24.0164 102.119 24.7204ZM127.517 16.4644C127.923 16.5924 128.253 16.8164 128.509 17.1364C128.787 17.435 128.925 17.9257 128.925 18.6084C128.925 19.291 128.723 20.0377 128.317 20.8484C127.912 21.659 127.325 22.0644 126.557 22.0644C126.173 22.0644 125.8 21.979 125.437 21.8084C125.096 21.6377 124.637 21.5524 124.061 21.5524C123.485 21.5524 122.941 21.755 122.429 22.1604C121.939 22.5657 121.693 23.0564 121.693 23.6324V30.3524C121.693 30.843 121.672 31.2164 121.629 31.4724C121.608 31.707 121.512 31.9844 121.341 32.3044C121.021 32.859 120.189 33.1364 118.845 33.1364C117.821 33.1364 117.085 32.955 116.637 32.5924C116.296 32.2937 116.104 31.835 116.061 31.2164C116.061 31.003 116.061 30.6937 116.061 30.2884V19.0564C116.061 18.5657 116.072 18.203 116.093 17.9684C116.136 17.7124 116.232 17.435 116.381 17.1364C116.68 16.5604 117.512 16.2724 118.877 16.2724C120.157 16.2724 120.957 16.5177 121.277 17.0084C121.512 17.3497 121.629 17.7017 121.629 18.0644C121.736 17.915 121.885 17.7337 122.077 17.5204C122.291 17.307 122.728 17.019 123.389 16.6564C124.051 16.2937 124.627 16.1124 125.117 16.1124C125.629 16.1124 126.056 16.1444 126.397 16.2084C126.739 16.251 127.112 16.3364 127.517 16.4644ZM130.686 19.0884C130.686 18.5977 130.697 18.235 130.718 18.0004C130.761 17.7444 130.857 17.4564 131.006 17.1364C131.305 16.5817 132.137 16.3044 133.502 16.3044C134.526 16.3044 135.252 16.4857 135.678 16.8484C136.041 17.147 136.233 17.6057 136.254 18.2244C136.276 18.4377 136.286 18.747 136.286 19.1524V30.3524C136.286 30.843 136.265 31.2164 136.222 31.4724C136.201 31.707 136.105 31.9844 135.934 32.3044C135.657 32.859 134.836 33.1364 133.47 33.1364C132.126 33.1364 131.305 32.8484 131.006 32.2724C130.857 31.9524 130.761 31.675 130.718 31.4404C130.697 31.2057 130.686 30.8324 130.686 30.3204V19.0884ZM135.934 13.1684C135.785 13.467 135.508 13.6804 135.102 13.8084C134.697 13.9364 134.153 14.0004 133.47 14.0004C132.809 14.0004 132.276 13.9364 131.87 13.8084C131.465 13.6804 131.177 13.4564 131.006 13.1364C130.857 12.8164 130.761 12.539 130.718 12.3044C130.697 12.0484 130.686 11.675 130.686 11.1844C130.686 10.6937 130.697 10.331 130.718 10.0964C130.761 9.84035 130.857 9.56302 131.006 9.26435C131.305 8.68835 132.137 8.40035 133.502 8.40035C134.846 8.40035 135.657 8.68835 135.934 9.26435C136.105 9.58435 136.201 9.87235 136.222 10.1284C136.265 10.363 136.286 10.7257 136.286 11.2164C136.286 11.707 136.265 12.0804 136.222 12.3364C136.201 12.571 136.105 12.8484 135.934 13.1684ZM147.259 27.5044H152.731C153.584 27.5044 154.192 27.611 154.555 27.8244C154.939 28.0377 155.195 28.347 155.323 28.7524C155.451 29.1577 155.515 29.691 155.515 30.3524C155.515 31.0137 155.451 31.547 155.323 31.9524C155.195 32.3577 154.971 32.6457 154.651 32.8164C154.331 32.9657 154.043 33.0617 153.787 33.1044C153.552 33.1257 153.189 33.1364 152.699 33.1364H141.147C140.4 33.1364 139.749 32.859 139.195 32.3044C138.64 31.7497 138.363 31.0884 138.363 30.3204C138.363 29.5524 138.64 28.9017 139.195 28.3684C139.749 27.8137 140.603 27.0244 141.755 26.0004C142.907 24.9764 143.952 24.059 144.891 23.2484C145.829 22.4164 146.341 21.9577 146.427 21.8724H141.915C140.699 21.8724 139.931 21.6697 139.611 21.2644C139.248 20.795 139.067 20.1764 139.067 19.4084C139.067 18.6404 139.12 18.075 139.227 17.7124C139.333 17.3284 139.461 17.051 139.611 16.8804C139.76 16.6884 139.973 16.539 140.251 16.4324C140.613 16.3257 141.168 16.2724 141.915 16.2724H152.315C153.061 16.2724 153.712 16.539 154.267 17.0724C154.821 17.6057 155.099 18.2777 155.099 19.0884C155.099 19.8777 154.779 20.5817 154.139 21.2004C153.499 21.819 151.205 23.9204 147.259 27.5044Z" fill="#BB6BD9"/>
<path d="M8.01349 35.36C8.46948 36.416 8.94948 37.208 9.45349 37.736C9.98148 38.288 10.4735 38.564 10.9295 38.564C11.3855 38.564 11.7095 38.576 11.9015 38.6C12.1175 38.624 12.3455 38.708 12.5855 38.852C12.8495 38.996 13.0295 39.236 13.1255 39.572C13.2455 39.908 13.3055 40.352 13.3055 40.904C13.3055 41.456 13.2455 41.888 13.1255 42.2C13.0295 42.536 12.8495 42.776 12.5855 42.92C12.1775 43.112 11.6375 43.208 10.9655 43.208C9.33349 43.208 7.85748 42.632 6.53748 41.48C5.24148 40.352 4.20948 38.888 3.44148 37.088C1.88148 33.392 1.10148 29.432 1.10148 25.208C1.10148 21.008 1.84548 17.072 3.33348 13.4C4.10148 11.528 5.14548 10.016 6.46548 8.864C7.78548 7.688 9.29748 7.1 11.0015 7.1C11.7215 7.1 12.2375 7.184 12.5495 7.352C13.0535 7.664 13.3055 8.36 13.3055 9.44C13.3055 10.568 13.0895 11.24 12.6575 11.456C12.3215 11.648 11.8295 11.744 11.1815 11.744H10.9655C10.0295 11.744 9.06948 12.812 8.08548 14.948C7.62948 15.98 7.24548 17.396 6.93348 19.196C6.64548 20.972 6.50148 22.964 6.50148 25.172C6.50148 27.38 6.64548 29.372 6.93348 31.148C7.22148 32.924 7.58148 34.328 8.01349 35.36ZM43.3219 9.62C43.5139 9.98 43.6219 10.304 43.6459 10.592C43.6939 10.88 43.7179 11.3 43.7179 11.852V31.832C43.7179 33.488 43.2619 34.46 42.3499 34.748C41.8939 34.892 41.3179 34.964 40.6219 34.964C39.9259 34.964 39.3739 34.904 38.9659 34.784C38.5579 34.664 38.2459 34.52 38.0299 34.352C37.8139 34.184 37.6459 33.944 37.5259 33.632C37.4059 33.224 37.3459 32.6 37.3459 31.76V19.7C36.7459 20.444 35.8699 21.632 34.7179 23.264C33.5659 24.872 32.8339 25.88 32.5219 26.288C32.2099 26.696 31.9939 26.984 31.8739 27.152C31.7539 27.296 31.4539 27.512 30.9739 27.8C30.5179 28.064 30.0139 28.196 29.4619 28.196C28.9339 28.196 28.4419 28.076 27.9859 27.836C27.5539 27.572 27.2419 27.32 27.0499 27.08L26.7619 26.684C26.2819 26.084 25.3339 24.812 23.9179 22.868C22.5019 20.9 21.7339 19.844 21.6139 19.7V31.832C21.6139 32.384 21.5899 32.804 21.5419 33.092C21.5179 33.356 21.4099 33.656 21.2179 33.992C20.8579 34.64 19.9219 34.964 18.4099 34.964C16.9459 34.964 16.0339 34.64 15.6739 33.992C15.4819 33.656 15.3619 33.344 15.3139 33.056C15.2899 32.768 15.2779 32.336 15.2779 31.76V11.78C15.2779 11.228 15.2899 10.82 15.3139 10.556C15.3619 10.268 15.4819 9.944 15.6739 9.584C16.0339 8.96 16.9699 8.648 18.4819 8.648C19.1299 8.648 19.6819 8.732 20.1379 8.9C20.6179 9.044 20.9299 9.2 21.0739 9.368L21.2899 9.584L29.4619 20.312C33.5419 14.912 36.2659 11.348 37.6339 9.62C38.0419 8.972 39.0019 8.648 40.5139 8.648C42.0499 8.648 42.9859 8.972 43.3219 9.62ZM46.3861 38.852C46.6501 38.708 46.8781 38.624 47.0701 38.6C47.2861 38.576 47.6221 38.564 48.0781 38.564C48.5341 38.564 49.0141 38.288 49.5181 37.736C50.0461 37.208 50.5381 36.416 50.9941 35.36C52.0021 32.984 52.5061 29.576 52.5061 25.136C52.5061 22.952 52.3501 20.972 52.0381 19.196C51.7501 17.396 51.3781 15.98 50.9221 14.948C49.9381 12.812 48.9781 11.744 48.0421 11.744H47.8261C47.1781 11.744 46.7101 11.672 46.4221 11.528C45.9421 11.264 45.7021 10.604 45.7021 9.548C45.7021 8.468 45.8941 7.796 46.2781 7.532C46.6621 7.244 47.2381 7.1 48.0061 7.1C49.7101 7.1 51.2221 7.688 52.5421 8.864C53.8621 10.016 54.9061 11.528 55.6741 13.4C57.1621 17.072 57.9061 21.008 57.9061 25.208C57.9061 29.432 57.1261 33.392 55.5661 37.088C54.7981 38.888 53.7541 40.352 52.4341 41.48C51.1381 42.632 49.6741 43.208 48.0421 43.208C46.8181 43.208 46.0981 42.872 45.8821 42.2C45.7621 41.888 45.7021 41.456 45.7021 40.904C45.7021 40.352 45.7501 39.908 45.8461 39.572C45.9661 39.236 46.1461 38.996 46.3861 38.852Z" fill="#BB6BD9"/>
</svg>
