<svg width="72" height="46" viewBox="0 0 72 46" fill="none" xmlns="http://www.w3.org/2000/svg">
<path d="M8.99 35.45C9.56 36.77 10.16 37.76 10.79 38.42C11.45 39.11 12.065 39.455 12.635 39.455C13.205 39.455 13.61 39.47 13.85 39.5C14.12 39.53 14.405 39.635 14.705 39.815C15.035 39.995 15.26 40.295 15.38 40.715C15.53 41.135 15.605 41.69 15.605 42.38C15.605 43.07 15.53 43.61 15.38 44C15.26 44.42 15.035 44.72 14.705 44.9C14.195 45.14 13.52 45.26 12.68 45.26C10.64 45.26 8.795 44.54 7.145 43.1C5.525 41.69 4.235 39.86 3.275 37.61C1.325 32.99 0.35 28.04 0.35 22.76C0.35 17.51 1.28 12.59 3.14 8C4.1 5.66 5.405 3.77 7.055 2.33C8.705 0.859999 10.595 0.124998 12.725 0.124998C13.625 0.124998 14.27 0.229999 14.66 0.44C15.29 0.829998 15.605 1.7 15.605 3.05C15.605 4.46 15.335 5.3 14.795 5.57C14.375 5.81 13.76 5.93 12.95 5.93H12.68C11.51 5.93 10.31 7.265 9.08 9.935C8.51 11.225 8.03 12.995 7.64 15.245C7.28 17.465 7.1 19.955 7.1 22.715C7.1 25.475 7.28 27.965 7.64 30.185C8 32.405 8.45 34.16 8.99 35.45ZM53.1255 3.275C53.3655 3.725 53.5005 4.13 53.5305 4.49C53.5905 4.85 53.6205 5.375 53.6205 6.065V31.04C53.6205 33.11 53.0505 34.325 51.9105 34.685C51.3405 34.865 50.6205 34.955 49.7505 34.955C48.8805 34.955 48.1905 34.88 47.6805 34.73C47.1705 34.58 46.7805 34.4 46.5105 34.19C46.2405 33.98 46.0305 33.68 45.8805 33.29C45.7305 32.78 45.6555 32 45.6555 30.95V15.875C44.9055 16.805 43.8105 18.29 42.3705 20.33C40.9305 22.34 40.0155 23.6 39.6255 24.11C39.2355 24.62 38.9655 24.98 38.8155 25.19C38.6655 25.37 38.2905 25.64 37.6905 26C37.1205 26.33 36.4905 26.495 35.8005 26.495C35.1405 26.495 34.5255 26.345 33.9555 26.045C33.4155 25.715 33.0255 25.4 32.7855 25.1L32.4255 24.605C31.8255 23.855 30.6405 22.265 28.8705 19.835C27.1005 17.375 26.1405 16.055 25.9905 15.875V31.04C25.9905 31.73 25.9605 32.255 25.9005 32.615C25.8705 32.945 25.7355 33.32 25.4955 33.74C25.0455 34.55 23.8755 34.955 21.9855 34.955C20.1555 34.955 19.0155 34.55 18.5655 33.74C18.3255 33.32 18.1755 32.93 18.1155 32.57C18.0855 32.21 18.0705 31.67 18.0705 30.95V5.975C18.0705 5.285 18.0855 4.775 18.1155 4.445C18.1755 4.085 18.3255 3.68 18.5655 3.23C19.0155 2.45 20.1855 2.06 22.0755 2.06C22.8855 2.06 23.5755 2.165 24.1455 2.375C24.7455 2.555 25.1355 2.75 25.3155 2.96L25.5855 3.23L35.8005 16.64C40.9005 9.89 44.3055 5.435 46.0155 3.275C46.5255 2.465 47.7255 2.06 49.6155 2.06C51.5355 2.06 52.7055 2.465 53.1255 3.275ZM56.9558 39.815C57.2858 39.635 57.5708 39.53 57.8108 39.5C58.0808 39.47 58.5008 39.455 59.0708 39.455C59.6408 39.455 60.2408 39.11 60.8708 38.42C61.5308 37.76 62.1458 36.77 62.7158 35.45C63.9758 32.48 64.6058 28.22 64.6058 22.67C64.6058 19.94 64.4108 17.465 64.0208 15.245C63.6608 12.995 63.1958 11.225 62.6258 9.935C61.3958 7.265 60.1958 5.93 59.0258 5.93H58.7558C57.9458 5.93 57.3608 5.84 57.0008 5.66C56.4008 5.33 56.1008 4.505 56.1008 3.185C56.1008 1.835 56.3408 0.994999 56.8208 0.664999C57.3008 0.304999 58.0208 0.124998 58.9808 0.124998C61.1108 0.124998 63.0008 0.859999 64.6508 2.33C66.3008 3.77 67.6058 5.66 68.5658 8C70.4258 12.59 71.3558 17.51 71.3558 22.76C71.3558 28.04 70.3808 32.99 68.4308 37.61C67.4708 39.86 66.1658 41.69 64.5158 43.1C62.8958 44.54 61.0658 45.26 59.0258 45.26C57.4958 45.26 56.5958 44.84 56.3258 44C56.1758 43.61 56.1008 43.07 56.1008 42.38C56.1008 41.69 56.1608 41.135 56.2808 40.715C56.4308 40.295 56.6558 39.995 56.9558 39.815Z" fill="#BB6BD9"/>
</svg>
